# xmcd
#
# Track frame offsets:
#	150
#	20293
#	41612
#	65990
#	83240
#	99752
#	115440
#	136590
#	156215
#	172340
#
# Disc length: 2601 seconds
#
# Revision: 2
# Processed by: cddbd v1.5.2PL0 Copyright (c) Steve Scherf et al.
# Submitted via: EasyCDDAExtractor 12.0.4.1
#
DISCID=810a270a
DTITLE=Various Artist - Dangerous Tata
DYEAR=2005
DGENRE=Thai
TTITLE0=Tata Young feat. THAITANIUM - Dangerous
TTITLE1=Tata Young feat. Nop Ponchamni - Shining
TTITLE2=Tata Young - Completely
TTITLE3=Tata Young - Love Whitout A Cause
TTITLE4=Tata Young  feat. AJay - I'll Be Your Girl
TTITLE5=Tata Young - Give It Back To Me
TTITLE6=Tata Young feat. ToR+Vejsupaporn - Love Song In The Wind
TTITLE7=Tata Young feat. Prem.B - In The Mood
TTITLE8=Tata Young - Hey Ma Ma Say
TTITLE9=Tata Young feat. B5 - Calling Inside
EXTD='Dangeroustata' by tata young
EXTT0=
EXTT1=
EXTT2=
EXTT3=
EXTT4=
EXTT5=
EXTT6=
EXTT7=
EXTT8=
EXTT9=
PLAYORDER=
